# xmcd
#
# Track frame offsets:
#        150
#        22872
#        49794
#        67883
#        86967
#        103593
#        119754
#        136578
#        156008
#        178268
#        197693
#
# Disc length: 2984 seconds
#
# Revision: 0
# Processed by: cddbd v1.5.1PL2 Copyright (c) Steve Scherf et al.
# Submitted via: ExactAudioCopy v0.95a5
#
DISCID=900ba60b
DTITLE=MELON - Do You Like Jaoab?
DYEAR=1900
DGENRE=New Wave
TTITLE0=DO YOU LIKE JAPAN ?
TTITLE1=O.D.
TTITLE2=HONEY DEW
TTITLE3=SONG OF APOLLO
TTITLE4=I WILL CALL YOU
TTITLE5=MILLION YEARS PICNIC
TTITLE6=(DON'T WARRY ABOUT) AFTER DEATH
TTITLE7=NEVADA
TTITLE8=FINAL NEWS
TTITLE9=HONEY DEW
TTITLE10=Do you like Japan?
EXTD=
EXTT0=
EXTT1=
EXTT2=
EXTT3=
EXTT4=
EXTT5=
EXTT6=
EXTT7=
EXTT8=
EXTT9=
EXTT10=
PLAYORDER=
